<?xml version="1.0" standalone="no"?>
<svg viewBox="0 0 200 200" xmlns="http://www.w3.org/2000/svg">
  <path fill="#FA4D56" d="M35.1,-63.1C45.7,-54.6,54.6,-45.6,63.9,-35C73.2,-24.4,82.9,-12.2,84.9,1.2C86.9,14.5,81.2,29,70.2,36.8C59.3,44.6,43.1,45.6,30.5,50C18,54.3,9,61.9,-3.2,67.5C-15.4,73.1,-30.9,76.7,-39.4,70C-48,63.3,-49.6,46.5,-51.5,33.1C-53.3,19.7,-55.3,9.9,-56.6,-0.7C-57.8,-11.3,-58.2,-22.6,-52.9,-29.8C-47.5,-37,-36.3,-40.2,-26.5,-49.2C-16.7,-58.1,-8.3,-72.9,1.9,-76.2C12.2,-79.6,24.5,-71.6,35.1,-63.1Z" transform="translate(100 100)" />
</svg>
